<?xml version="1.0" encoding="UTF-8" standalone="no"?>
<!DOCTYPE svg PUBLIC "-//W3C//DTD SVG 1.1//EN"
 "http://www.w3.org/Graphics/SVG/1.1/DTD/svg11.dtd">
<!-- Generated by graphviz version 2.38.0 (20140413.2041)
 -->
<!-- Title: %3 Pages: 1 -->
<svg width="660pt" height="185pt"
 viewBox="0.00 0.00 660.00 184.80" xmlns="http://www.w3.org/2000/svg" xmlns:xlink="http://www.w3.org/1999/xlink">
<g id="graph0" class="graph" transform="scale(1 1) rotate(0) translate(4 180.8)">
<title>%3</title>
<polygon fill="white" stroke="none" points="-4,4 -4,-180.8 656,-180.8 656,4 -4,4"/>
<g id="clust1" class="cluster"><title>cluster_0</title>
<polygon fill="none" stroke="black" points="8,-8 8,-168.8 644,-168.8 644,-8 8,-8"/>
<text text-anchor="middle" x="326" y="-143.2" font-family="Times,serif" font-size="24.00">preinstall plugins</text>
</g>
<!-- version/save&#45;for&#45;rollback.preinstall -->
<g id="node1" class="node"><title>version/save&#45;for&#45;rollback.preinstall</title>
<g id="a_node1"><a xlink:href="../library/version/save-for-rollback.preinstall" xlink:title="Saving current appliance node version info for rollback purposes...">
<polygon fill="lightgrey" stroke="black" points="636.128,-34 481.064,-52 170.936,-52 15.8719,-34 170.936,-16 481.064,-16 636.128,-34"/>
<text text-anchor="middle" x="326" y="-29.8" font-family="Times,serif" font-size="14.00">Saving current appliance node version info for rollback purposes...</text>
</a>
</g>
</g>
<!-- version/status.preinstall -->
<g id="node2" class="node"><title>version/status.preinstall</title>
<g id="a_node2"><a xlink:href="../library/version/status.preinstall" xlink:title="Checking appliance update status...">
<polygon fill="lightgrey" stroke="black" points="496.103,-106 411.052,-124 240.948,-124 155.897,-106 240.948,-88 411.052,-88 496.103,-106"/>
<text text-anchor="middle" x="326" y="-101.8" font-family="Times,serif" font-size="14.00">Checking appliance update status...</text>
</a>
</g>
</g>
<!-- version/status.preinstall&#45;&gt;version/save&#45;for&#45;rollback.preinstall -->
<g id="edge1" class="edge"><title>version/status.preinstall&#45;&gt;version/save&#45;for&#45;rollback.preinstall</title>
<path fill="none" stroke="black" d="M320.084,-87.6966C319.289,-79.9827 319.062,-70.7125 319.405,-62.1124"/>
<polygon fill="black" stroke="black" points="322.898,-62.3243 320.105,-52.1043 315.915,-61.8356 322.898,-62.3243"/>
</g>
<!-- version/status.preinstall&#45;&gt;version/save&#45;for&#45;rollback.preinstall -->
<g id="edge2" class="edge"><title>version/status.preinstall&#45;&gt;version/save&#45;for&#45;rollback.preinstall</title>
<path fill="none" stroke="black" d="M331.916,-87.6966C332.711,-79.9827 332.938,-70.7125 332.595,-62.1124"/>
<polygon fill="black" stroke="black" points="336.085,-61.8356 331.895,-52.1043 329.102,-62.3243 336.085,-61.8356"/>
</g>
</g>
</svg>
