<?xml version="1.0" encoding="UTF-8" standalone="no"?>
<!DOCTYPE svg PUBLIC "-//W3C//DTD SVG 1.1//EN"
 "http://www.w3.org/Graphics/SVG/1.1/DTD/svg11.dtd">
<!-- Generated by graphviz version 2.38.0 (20140413.2041)
 -->
<!-- Title: %3 Pages: 1 -->
<svg width="642pt" height="113pt"
 viewBox="0.00 0.00 642.00 112.80" xmlns="http://www.w3.org/2000/svg" xmlns:xlink="http://www.w3.org/1999/xlink">
<g id="graph0" class="graph" transform="scale(1 1) rotate(0) translate(4 108.8)">
<title>%3</title>
<polygon fill="white" stroke="none" points="-4,4 -4,-108.8 638,-108.8 638,4 -4,4"/>
<g id="clust1" class="cluster"><title>cluster_0</title>
<polygon fill="none" stroke="black" points="8,-8 8,-96.8 626,-96.8 626,-8 8,-8"/>
<text text-anchor="middle" x="317" y="-71.2" font-family="Times,serif" font-size="24.00">install plugins</text>
</g>
<!-- asum&#45;reboot/reboot.install -->
<g id="node1" class="node"><title>asum&#45;reboot/reboot.install</title>
<g id="a_node1"><a xlink:href="../library/asum-reboot/reboot.install" xlink:title="Preparing for reboot">
<polygon fill="lightgrey" stroke="black" points="618.308,-34 566.654,-52 463.346,-52 411.692,-34 463.346,-16 566.654,-16 618.308,-34"/>
<text text-anchor="middle" x="515" y="-29.8" font-family="Times,serif" font-size="14.00">Preparing for reboot</text>
</a>
</g>
</g>
<!-- node&#45;version/node&#45;version.install -->
<g id="node2" class="node"><title>node&#45;version/node&#45;version.install</title>
<g id="a_node2"><a xlink:href="../library/node-version/node-version.install" xlink:title="Update node version for Flex appliance">
<polygon fill="lightgrey" stroke="black" points="393.856,-34 299.428,-52 110.572,-52 16.1445,-34 110.572,-16 299.428,-16 393.856,-34"/>
<text text-anchor="middle" x="205" y="-29.8" font-family="Times,serif" font-size="14.00">Update node version for Flex appliance</text>
</a>
</g>
</g>
</g>
</svg>
