<?xml version="1.0" encoding="UTF-8" standalone="no"?>
<!DOCTYPE svg PUBLIC "-//W3C//DTD SVG 1.1//EN"
 "http://www.w3.org/Graphics/SVG/1.1/DTD/svg11.dtd">
<!-- Generated by graphviz version 2.38.0 (20140413.2041)
 -->
<!-- Title: %3 Pages: 1 -->
<svg width="528pt" height="185pt"
 viewBox="0.00 0.00 528.00 184.80" xmlns="http://www.w3.org/2000/svg" xmlns:xlink="http://www.w3.org/1999/xlink">
<g id="graph0" class="graph" transform="scale(1 1) rotate(0) translate(4 180.8)">
<title>%3</title>
<polygon fill="white" stroke="none" points="-4,4 -4,-180.8 524,-180.8 524,4 -4,4"/>
<g id="clust1" class="cluster"><title>cluster_0</title>
<polygon fill="none" stroke="black" points="8,-8 8,-168.8 512,-168.8 512,-8 8,-8"/>
<text text-anchor="middle" x="260" y="-143.2" font-family="Times,serif" font-size="24.00">prereboot plugins</text>
</g>
<!-- asum&#45;reboot/update_status.prereboot -->
<g id="node1" class="node"><title>asum&#45;reboot/update_status.prereboot</title>
<g id="a_node1"><a xlink:href="../library/asum-reboot/update_status.prereboot" xlink:title="Updating task status &#45; system restart">
<polygon fill="lightgrey" stroke="black" points="434.161,-106 347.08,-124 172.92,-124 85.8392,-106 172.92,-88 347.08,-88 434.161,-106"/>
<text text-anchor="middle" x="260" y="-101.8" font-family="Times,serif" font-size="14.00">Updating task status &#45; system restart</text>
</a>
</g>
</g>
<!-- vcs/vcs.prereboot -->
<g id="node2" class="node"><title>vcs/vcs.prereboot</title>
<g id="a_node2"><a xlink:href="../library/vcs/vcs.prereboot" xlink:title="Stopping VERITAS Cluster Server (VCS) service...">
<polygon fill="lightgrey" stroke="black" points="504.258,-34 382.129,-52 137.871,-52 15.7423,-34 137.871,-16 382.129,-16 504.258,-34"/>
<text text-anchor="middle" x="260" y="-29.8" font-family="Times,serif" font-size="14.00">Stopping VERITAS Cluster Server (VCS) service...</text>
</a>
</g>
</g>
<!-- asum&#45;reboot/update_status.prereboot&#45;&gt;vcs/vcs.prereboot -->
<g id="edge1" class="edge"><title>asum&#45;reboot/update_status.prereboot&#45;&gt;vcs/vcs.prereboot</title>
<path fill="none" stroke="black" d="M254.084,-87.6966C253.289,-79.9827 253.062,-70.7125 253.405,-62.1124"/>
<polygon fill="black" stroke="black" points="256.898,-62.3243 254.105,-52.1043 249.915,-61.8356 256.898,-62.3243"/>
</g>
<!-- asum&#45;reboot/update_status.prereboot&#45;&gt;vcs/vcs.prereboot -->
<g id="edge2" class="edge"><title>asum&#45;reboot/update_status.prereboot&#45;&gt;vcs/vcs.prereboot</title>
<path fill="none" stroke="black" d="M265.916,-87.6966C266.711,-79.9827 266.938,-70.7125 266.595,-62.1124"/>
<polygon fill="black" stroke="black" points="270.085,-61.8356 265.895,-52.1043 263.102,-62.3243 270.085,-61.8356"/>
</g>
</g>
</svg>
